<?xml version="1.0" encoding="utf-8"?>
<!-- Generator: Adobe Illustrator 24.2.0, SVG Export Plug-In . SVG Version: 6.00 Build 0)  -->
<svg version="1.1" id="Слой_1" xmlns="http://www.w3.org/2000/svg" xmlns:xlink="http://www.w3.org/1999/xlink" x="0px" y="0px"
	 viewBox="0 0 287 404" style="enable-background:new 0 0 287 404;" xml:space="preserve">
<style type="text/css">
	.st0{fill:#666666;}
</style>
<path class="st0" d="M277-1H10C4.5-1,0,3.5,0,9v374c0,7.5,4.2,14.4,10.8,17.8c6.7,3.4,14.7,2.8,20.8-1.5l111.9-80.2l111.9,80.2
	c6.1,4.4,14.1,5,20.8,1.5c6.7-3.4,10.9-10.3,10.9-17.8V9C287,3.5,282.5-1,277-1z M267,383l-117.7-84.3c-3.5-2.5-8.2-2.5-11.6,0
	L20,383V19h247V383z"/>
</svg>
