<?xml version="1.0" encoding="utf-8"?>
<!-- Generator: Adobe Illustrator 24.2.0, SVG Export Plug-In . SVG Version: 6.00 Build 0)  -->
<svg version="1.1" id="Слой_1" xmlns="http://www.w3.org/2000/svg" xmlns:xlink="http://www.w3.org/1999/xlink" x="0px" y="0px"
	 viewBox="0 0 290 207" style="enable-background:new 0 0 290 207;" xml:space="preserve">
<style type="text/css">
	.st0{fill:#828282;}
</style>
<g>
	<g>
		<path class="st0" d="M247.7,1H43.3C20,1,1,20.6,1,44.8v118.5C1,187.4,20,207,43.3,207h204.3c23.3,0,42.3-19.6,42.3-43.8V44.8
			C290,20.6,271,1,247.7,1z M279.5,163.2c0,18.1-14.3,32.9-31.8,32.9H43.3c-17.5,0-31.8-14.7-31.8-32.9V44.8
			c0-18.1,14.3-32.9,31.8-32.9h204.3c17.5,0,31.8,14.7,31.8,32.9L279.5,163.2L279.5,163.2z"/>
	</g>
</g>
<g>
	<g>
		<path class="st0" d="M189.5,99.8l-71.2-42.5c-1.6-1-3.6-1-5.3,0c-1.6,1-2.6,2.8-2.6,4.7v85c0,1.9,1,3.7,2.6,4.7
			c0.8,0.5,1.7,0.7,2.6,0.7c0.9,0,1.8-0.2,2.6-0.7l71.2-42.5c1.6-1,2.6-2.8,2.6-4.7C192.1,102.6,191.1,100.8,189.5,99.8z
			 M120.9,137.6V71.5l55.4,33.1L120.9,137.6z"/>
	</g>
</g>
</svg>
